# xmcd
#
# Track frame offsets: 
#        150
#        12938
#        25854
#        37676
#        49341
#        61164
#        72977
#        85750
#        98003
#        111224
#        121733
#        133329
#        144928
#        157689
#
# Disc length: 2262 seconds
#
# Revision: 0
# Processed by: cddbd v1.5.2PL0 Copyright (c) Steve Scherf et al.
# Submitted via: ExactAudioCopy v1.0b1
#
DISCID=a908d40e
DTITLE=Al Dexter - Pistol Packin' Mama
DYEAR=2001
DGENRE=Country
TTITLE0=Pistol Packin' Mama
TTITLE1=It's Up To You
TTITLE2=Darling It's All Over Now
TTITLE3=I'm Startin' Sweetheart Again
TTITLE4=Honey Do You Think It's Wrong
TTITLE5=Fisherman's Boogie
TTITLE6=I'm Losin' My Mind Over You
TTITLE7=Triflin' Gal
TTITLE8=So Long Pal
TTITLE9=New Broom Boogie
TTITLE10=I Don't Suppose
TTITLE11=Who's Been Here
TTITLE12=Hi De Ho Boogie
TTITLE13=I'm Setting You Free
EXTD=
EXTT0=
EXTT1=
EXTT2=
EXTT3=
EXTT4=
EXTT5=
EXTT6=
EXTT7=
EXTT8=
EXTT9=
EXTT10=
EXTT11=
EXTT12=
EXTT13=
PLAYORDER=
